<?xml version="1.0" standalone="no"?>
<!DOCTYPE svg PUBLIC "-//W3C//DTD SVG 20010904//EN"
 "http://www.w3.org/TR/2001/REC-SVG-20010904/DTD/svg10.dtd">
<svg version="1.0" xmlns="http://www.w3.org/2000/svg"
 width="960.000000pt" height="720.000000pt" viewBox="0 0 960.000000 720.000000"
 preserveAspectRatio="xMidYMid meet">
<metadata>
Created by potrace 1.16, written by Peter Selinger 2001-2019
</metadata>
<g transform="translate(0.000000,720.000000) scale(0.100000,-0.100000)"
fill="#000000" stroke="none">
<path d="M4735 6585 c-145 -26 -266 -67 -407 -136 -54 -26 -103 -49 -110 -52
-7 -2 -11 -7 -8 -10 7 -7 111 22 124 34 6 5 21 9 34 9 13 0 31 4 41 9 10 6 37
12 62 15 206 26 237 28 354 16 316 -32 547 -133 762 -335 200 -187 314 -381
378 -642 22 -88 25 -125 25 -270 0 -224 -17 -328 -74 -471 -19 -47 -32 -90
-29 -95 2 -4 30 -19 61 -33 32 -14 103 -48 158 -75 56 -27 110 -49 121 -49 15
0 25 20 51 95 18 52 32 103 32 113 0 10 4 22 9 28 9 9 33 128 51 251 25 177 0
496 -50 628 -60 158 -72 187 -97 227 -13 21 -23 40 -23 43 0 12 -85 132 -134
190 -161 189 -347 327 -576 428 -54 24 -206 66 -299 82 -102 18 -357 18 -456
0z"/>
<path d="M4575 6373 c-65 -8 -193 -35 -245 -52 -63 -21 -206 -90 -253 -123
-206 -141 -326 -269 -419 -447 -36 -68 -88 -192 -88 -208 0 -8 -4 -21 -9 -31
-40 -73 -55 -398 -25 -552 17 -87 76 -247 123 -334 26 -49 30 -56 65 -111 22
-34 87 -105 96 -105 4 0 15 44 24 98 21 116 78 335 107 412 100 262 198 443
321 595 215 267 322 368 563 532 109 74 173 111 285 165 47 22 87 42 89 45 24
20 -193 92 -342 112 -74 10 -226 13 -292 4z"/>
<path d="M5345 6134 c-93 -34 -248 -112 -335 -169 -38 -25 -78 -49 -88 -53
-20 -7 -33 -17 -177 -136 -95 -78 -209 -190 -247 -243 -13 -17 -43 -57 -67
-89 -183 -238 -338 -553 -391 -794 -6 -30 -16 -71 -20 -90 -19 -75 -43 -276
-37 -300 9 -31 135 -120 172 -120 7 0 17 31 25 83 33 219 53 304 101 437 22
63 44 127 49 141 27 89 213 424 266 479 19 20 34 39 34 44 0 14 156 189 242
271 188 179 342 285 586 404 74 36 86 53 53 70 -10 6 -37 26 -60 46 -48 39
-50 39 -106 19z"/>
<path d="M5514 5846 c-310 -153 -553 -360 -782 -665 -38 -51 -76 -105 -83
-120 -8 -14 -27 -48 -44 -76 -32 -54 -44 -77 -101 -200 -39 -85 -79 -194 -95
-260 -72 -293 -93 -441 -68 -462 8 -6 55 -22 104 -35 78 -20 114 -23 265 -23
149 0 188 4 265 23 114 29 198 62 305 120 124 67 145 83 254 190 202 199 310
413 350 695 20 134 20 180 1 310 -20 141 -56 258 -118 382 -36 73 -107 185
-117 185 -4 0 -65 -29 -136 -64z"/>
<path d="M3130 4578 c0 -30 130 -196 227 -289 75 -73 221 -182 298 -223 28
-15 68 -37 90 -49 122 -67 324 -131 475 -149 126 -15 469 -4 550 17 36 9 69
20 73 25 5 4 -79 10 -185 13 -202 6 -272 17 -408 63 -165 56 -243 97 -426 221
-39 27 -198 189 -224 229 -11 16 -39 56 -63 89 l-44 60 -181 3 c-138 2 -182
-1 -182 -10z"/>
<path d="M3466 3578 c5 -8 -2 -9 -24 -5 -18 4 -32 2 -32 -3 0 -5 -6 -7 -14 -4
-23 9 -78 -25 -124 -77 -24 -27 -48 -47 -53 -43 -8 4 -13 -8 -11 -27 1 -3 -10
-18 -24 -34 -14 -16 -22 -35 -20 -42 3 -7 1 -13 -5 -13 -6 0 -8 -9 -4 -20 4
-12 2 -20 -5 -20 -8 0 -10 -9 -6 -25 4 -15 2 -25 -5 -25 -7 0 -8 -11 -4 -30 4
-20 3 -30 -5 -30 -8 0 -9 -10 -5 -30 4 -20 3 -30 -5 -30 -8 0 -10 -9 -6 -25 4
-15 2 -25 -5 -25 -7 0 -8 -11 -4 -30 4 -20 3 -30 -5 -30 -8 0 -9 -10 -5 -30 4
-20 3 -30 -5 -30 -8 0 -9 -10 -5 -30 4 -19 3 -30 -4 -30 -7 0 -9 -10 -5 -25 4
-16 2 -25 -6 -25 -8 0 -9 -10 -5 -30 4 -20 3 -30 -5 -30 -8 0 -9 -10 -5 -30 4
-19 3 -30 -4 -30 -7 0 -9 -10 -5 -25 4 -16 2 -25 -6 -25 -8 0 -9 -10 -5 -30 4
-16 3 -30 -2 -30 -7 0 -9 -132 -2 -150 1 -3 1 -8 0 -12 0 -5 4 -8 9 -8 6 0 10
-6 10 -13 0 -22 61 -87 103 -110 41 -21 53 -22 372 -25 415 -4 458 3 561 91
83 72 96 113 175 543 75 414 78 448 40 521 -35 69 -112 123 -176 123 -14 0
-25 5 -25 10 0 6 -114 10 -321 10 -240 0 -318 -3 -313 -12z m542 -310 c14 -14
16 -78 2 -78 -5 0 -7 -13 -3 -30 3 -19 1 -30 -6 -30 -7 0 -9 -9 -5 -25 4 -16
2 -25 -6 -25 -8 0 -9 -10 -5 -30 4 -16 3 -30 -2 -30 -5 0 -8 -13 -5 -30 2 -18
0 -30 -7 -30 -6 0 -8 -11 -4 -30 3 -19 1 -30 -6 -30 -7 0 -9 -9 -5 -25 3 -14
2 -25 -3 -25 -5 0 -8 -13 -5 -30 2 -16 0 -30 -5 -30 -5 0 -8 -13 -5 -30 2 -17
0 -30 -6 -30 -6 0 -8 -8 -5 -19 8 -30 -16 -99 -40 -116 -18 -12 -62 -15 -265
-15 -240 0 -274 4 -285 35 -4 8 18 153 48 322 47 263 58 311 76 326 19 15 48
17 278 17 187 0 260 -3 269 -12z"/>
<path d="M4867 3526 c4 -5 -7 -6 -25 -3 -17 3 -32 3 -34 -1 -2 -4 -29 -19 -61
-35 -110 -52 -206 -173 -223 -279 -4 -21 -10 -38 -14 -38 -3 0 -5 -13 -2 -30
3 -19 0 -30 -7 -30 -7 0 -9 -5 -6 -10 9 -14 -17 -160 -28 -160 -4 0 -5 -5 -2
-10 8 -14 -15 -160 -26 -160 -5 0 -6 -6 -3 -14 3 -8 0 -41 -6 -75 -27 -151
-10 -231 66 -308 78 -79 101 -83 434 -83 l277 0 16 93 c10 51 17 105 17 120
l0 27 -257 0 c-187 0 -265 4 -283 13 -48 24 -47 44 8 360 28 161 56 306 63
320 26 58 42 62 303 67 l238 5 53 115 52 115 -71 2 c-219 8 -483 7 -479 -1z"/>
<path d="M5870 3529 c0 -4 -18 -9 -41 -13 -134 -21 -283 -171 -305 -308 -4
-21 -10 -38 -14 -38 -3 0 -5 -13 -2 -30 3 -18 0 -30 -7 -30 -7 0 -9 -9 -5 -25
3 -14 2 -25 -3 -25 -5 0 -8 -13 -5 -30 2 -16 0 -30 -5 -30 -5 0 -8 -13 -5 -30
3 -18 0 -30 -7 -30 -7 0 -9 -9 -5 -25 3 -14 2 -25 -3 -25 -5 0 -8 -13 -5 -30
2 -16 0 -30 -5 -30 -5 0 -8 -13 -5 -30 3 -18 0 -30 -7 -30 -7 0 -9 -9 -5 -25
3 -14 2 -25 -3 -25 -5 0 -8 -13 -5 -30 2 -18 0 -30 -7 -30 -6 0 -8 -11 -4 -31
3 -18 0 -41 -8 -56 -11 -21 -11 -27 -1 -30 6 -3 12 -16 12 -31 0 -41 37 -107
85 -151 71 -65 106 -71 426 -71 l277 0 11 68 c7 37 15 91 20 120 l8 52 -259 0
c-287 0 -311 4 -323 58 -8 37 89 596 110 637 30 58 38 60 298 63 l237 3 29 57
c16 32 40 85 54 119 l25 62 -274 3 c-151 2 -274 0 -274 -3z"/>
</g>
</svg>
